<?xml version="1.0" encoding="utf-8"?>
<!-- Generator: Adobe Illustrator 25.3.1, SVG Export Plug-In . SVG Version: 6.00 Build 0)  -->
<svg version="1.1"
	 id="svg2424" inkscape:export-filename="/home/thayer/archlinux-logo-contest/archer-full-detail.png" inkscape:output_extension="org.inkscape.output.svg.inkscape" sodipodi:docname="archlinux-mono-white.svg" sodipodi:version="0.32" xmlns:cc="http://creativecommons.org/ns#" xmlns:dc="http://purl.org/dc/elements/1.1/" xmlns:inkscape="http://www.inkscape.org/namespaces/inkscape" xmlns:rdf="http://www.w3.org/1999/02/22-rdf-syntax-ns#" xmlns:sodipodi="http://sodipodi.sourceforge.net/DTD/sodipodi-0.dtd" xmlns:svg="http://www.w3.org/2000/svg"
	 xmlns="http://www.w3.org/2000/svg" xmlns:xlink="http://www.w3.org/1999/xlink" x="0px" y="0px" viewBox="0 0 325 108"
	 style="enable-background:new 0 0 325 108;" xml:space="preserve">
<style type="text/css">
	.st0{fill-rule:evenodd;clip-rule:evenodd;fill:#FFFFFF;}
	.st1{fill:#FFFFFF;}
	.st2{font-family:'ArialMT';}
	.st3{font-size:3.3337px;}
	.st4{font-size:3.2587px;}
</style>
<defs>
	
		<inkscape:perspective  id="perspective37" inkscape:persp3d-origin="300 : 66.472305 : 1" inkscape:vp_x="0 : 99.708458 : 1" inkscape:vp_y="0 : 1000 : 0" inkscape:vp_z="600 : 99.708458 : 1" sodipodi:type="inkscape:persp3d">
		</inkscape:perspective>
</defs>
<sodipodi:namedview  bordercolor="#666666" borderopacity="1.0" gridtolerance="10000" guidetolerance="10" id="base" inkscape:current-layer="g2424" inkscape:cx="302.48971" inkscape:cy="99.708458" inkscape:document-units="px" inkscape:pageopacity="0.0" inkscape:pageshadow="2" inkscape:window-height="582" inkscape:window-maximized="0" inkscape:window-width="1020" inkscape:window-x="0" inkscape:window-y="14" inkscape:zoom="1" objecttolerance="10" pagecolor="#ffffff" showgrid="false">
	</sodipodi:namedview>
<g id="g2809" transform="matrix(0.6378586,0,0,0.6378586,36.486487,2.17139)">
	<path id="path2284" class="st0" d="M132.5,58.7c-5.7,0-10.5,1.2-12.3,1.8l-1.9,10.2c0,0,9.4-2.5,13.5-2.3c6.9,0.2,7.5,2.6,7.4,5.8
		c0.1,0.2-1.8-2.9-7.7-3c-7.5-0.1-18.1,2.7-18,14c-0.2,12.7,9.5,16.4,16.1,16.5c5.9-0.1,8.7-2.3,10.2-3.4c2-2.1,4.3-4.2,6.5-6.7
		c-2.1,3.7-3.8,6.4-5.7,8.4v1.7l9-1.5l0-24.5C149.6,72,151.7,58.8,132.5,58.7z M131.2,80.1c3.7,0,8,1.9,8,6.3c0,4-5.1,6.2-8.4,6.2
		c-3.3,0-7.7-2.6-7.7-6.5C123.3,82.5,127.4,80,131.2,80.1z"/>
	
		<path id="path2286" inkscape:export-filename="/home/thayer/linux/artwork-arch/sample-hangar2.png" inkscape:export-xdpi="90" inkscape:export-ydpi="90" class="st0" d="
		M155.6,61l0,40.6l10.5-2v-23c0-3.4,4.9-7.5,11.1-7.4c1.3-2.3,3.7-8.4,4.3-9.8c-13.7,0-13.9,3.9-16.3,5.9c0-3.7,0-6,0-6L155.6,61z"
		/>
	
		<path id="path2288" inkscape:export-filename="/home/thayer/linux/artwork-arch/sample-hangar2.png" inkscape:export-xdpi="90" inkscape:export-ydpi="90" sodipodi:nodetypes="ccccccccccc" class="st0" d="
		M214.8,66.3c-0.1,0-5.5-6.3-16.3-6.3c-10.1-0.2-21.5,3.7-21.7,20.7c0.1,14.9,10.9,20.8,21.7,20.9c11.6,0.1,16.2-7.2,16.5-7.4
		c-1.4-1.2-6.5-6.3-6.5-6.3s-3.3,4.6-9.5,4.7c-6.3,0-11.7-4.8-11.8-11.7c-0.1-6.9,5-10.6,11.8-10.8c5.9,0,9.3,3.8,9.3,3.8
		L214.8,66.3z"/>
	<path id="path2290" class="st0" d="M228.1,46.8l-9.9,2.3l0.1,52.9l9.8-1.8l0.1-24.9c0-2.6,3.8-6.6,10-6.5c6,0,7.3,4,7.3,4.5
		l0.2,28.8l9.6-1.7l0-30.6c0-2.9-6.5-9.2-16.9-9.2c-5,0-7.7,1.1-9.1,1.9c-2.4,1.9-5.1,3.6-7.8,5.9c2.5-3.2,4.6-5.4,6.6-7L228.1,46.8
		z"/>
</g>
<g id="g5326" transform="matrix(0.9443373,0,1.3363449e-2,0.9443373,78.345657,-412.48879)">
	
		<path id="path2292" inkscape:export-filename="/home/thayer/linux/artwork-arch/sample-hangar2.png" inkscape:export-xdpi="90" inkscape:export-ydpi="90" class="st0" d="
		M127.1,471.6l3-0.8l-0.4,36l-3.1,0.5L127.1,471.6z"/>
	
		<path id="path2294" inkscape:export-filename="/home/thayer/linux/artwork-arch/sample-hangar2.png" inkscape:export-xdpi="90" inkscape:export-ydpi="90" class="st0" d="
		M135.2,482.4l2.7-1.2l-0.4,25.8l-2.6,0.5L135.2,482.4z M134.7,473.1l2.2-1.8l1.8,2l-2.2,1.8L134.7,473.1z"/>
	
		<path id="path2296" inkscape:export-filename="/home/thayer/linux/artwork-arch/sample-hangar2.png" inkscape:export-xdpi="90" inkscape:export-ydpi="90" class="st0" d="
		M142.8,481.9l3-0.6l0,5.4c0,0.2,1.8-6.1,9.8-5.9c7.8,0,8.9,6.1,8.9,7.4l-0.2,19l-2.7,0.6l0.3-18.7c0-0.5-1.1-5.2-6.6-5.2
		c-5.5,0-9.3,4-9.4,6.5l-0.2,16.5l-3.1,0.8L142.8,481.9z"/>
	
		<path id="path2298" inkscape:export-filename="/home/thayer/linux/artwork-arch/sample-hangar2.png" inkscape:export-xdpi="90" inkscape:export-ydpi="90" class="st0" d="
		M190.6,507.3l-3,0.6l0-5.4c0-0.2-1.8,6.1-9.8,5.9c-7.8,0-8.9-6.1-8.9-7.4l0.2-19l3.2-0.6l-0.2,18.7c0,0.5,0.5,5.2,6.1,5.3
		c5.5,0,9.4-3.3,9.5-8.3l0.2-14.8l3-0.8L190.6,507.3z"/>
	
		<path id="path2300" inkscape:export-filename="/home/thayer/linux/artwork-arch/sample-hangar2.png" inkscape:export-xdpi="90" inkscape:export-ydpi="90" class="st0" d="
		M196.9,481.7l-2.1,1.7l8,10.7l-8.9,12.3l2.2,1.7l8.3-11.4l8.3,11.7l2.1-1.7l-8.9-12.5l7.3-10.1l-2.2-1.9l-6.7,9.3L196.9,481.7z"/>
</g>
<path id="path2518" class="st0" d="M77.8,16.5c-3.3,8.2-5.4,13.5-9.1,21.5c2.3,2.4,5.1,5.2,9.6,8.4c-4.9-2-8.2-4-10.7-6.1
	c-4.7,9.9-12.2,24.1-27.4,51.2C52.2,84.6,61.4,80.3,70,78.7c-0.4-1.6-0.6-3.3-0.5-5.1v-0.4c0.2-7.6,4.2-13.5,8.9-13.1
	c4.7,0.4,8.4,6.9,8.2,14.5c0,1.4-0.2,2.8-0.5,4.1c8.5,1.7,17.6,5.9,29.3,12.6c-2.3-4.2-4.4-8.1-6.4-11.7c-3.1-2.4-6.4-5.6-13-8.9
	c4.6,1.2,7.8,2.5,10.3,4.1C86.3,37.5,84.7,32.6,77.8,16.5z"/>
<text transform="matrix(1 0 0 1 290.8195 65.1105)" class="st1 st2 st3">TM</text>
<text transform="matrix(1 0 0 1 114.8478 84.8039)" class="st1 st2 st4">TM</text>
</svg>
