<?xml version="1.0" encoding="utf-8"?>
<!-- Generator: Adobe Illustrator 25.3.1, SVG Export Plug-In . SVG Version: 6.00 Build 0)  -->
<svg version="1.1" id="Layer_1" xmlns="http://www.w3.org/2000/svg" xmlns:xlink="http://www.w3.org/1999/xlink" x="0px" y="0px"
	 viewBox="0 0 256 256" style="enable-background:new 0 0 256 256;" xml:space="preserve">
<style type="text/css">
	.st0{fill:#1E88E5;}
</style>
<g transform="translate(0.000000,256.000000) scale(0.100000,-0.100000)">
	<path class="st0" d="M690,2437c0-12,318-2124,341-2259l11-68h238h238l6,27c9,48,346,2282,346,2298c0,13-25,15-162,15h-163l-119-903
		c-65-496-122-906-126-910c-4-5-10,6-13,25c-7,35-237,1769-237,1781c0,4-81,7-180,7C733,2450,690,2447,690,2437z"/>
</g>
</svg>
