<?xml version="1.0" encoding="UTF-8" standalone="no"?>
<!-- Generator: Adobe Illustrator 13.0.3, SVG Export Plug-In . SVG Version: 6.00 Build 14948)  -->

<svg
   version="1.1"
   id="レイヤー_1"
   x="0px"
   y="0px"
   width="76px"
   height="76px"
   viewBox="0 0 76 76"
   enable-background="new 0 0 76 76"
   xml:space="preserve"
   sodipodi:docname="mines.svg"
   inkscape:version="1.4 (e7c3feb100, 2024-10-09)"
   xmlns:inkscape="http://www.inkscape.org/namespaces/inkscape"
   xmlns:sodipodi="http://sodipodi.sourceforge.net/DTD/sodipodi-0.dtd"
   xmlns="http://www.w3.org/2000/svg"
   xmlns:svg="http://www.w3.org/2000/svg"><defs
   id="defs4" /><sodipodi:namedview
   id="namedview4"
   pagecolor="#ffffff"
   bordercolor="#000000"
   borderopacity="0.25"
   inkscape:showpageshadow="2"
   inkscape:pageopacity="0.0"
   inkscape:pagecheckerboard="0"
   inkscape:deskcolor="#d1d1d1"
   inkscape:zoom="10.421053"
   inkscape:cx="38.04798"
   inkscape:cy="38"
   inkscape:window-width="1920"
   inkscape:window-height="1008"
   inkscape:window-x="0"
   inkscape:window-y="0"
   inkscape:window-maximized="1"
   inkscape:current-layer="レイヤー_1" />
<g
   id="g4"
   transform="matrix(0.84210526,0,0,0.84210526,6.0000001,6.0000001)">
	<g
   id="g1">
		<path
   id="rect1313_65_"
   fill="#fdfcfd"
   d="M 0.009,0 H 75.991 C 75.996,0 76,0.004 76,0.009 V 75.99 C 76,75.996 75.996,76 75.991,76 H 0.009 C 0.004,76 0,75.996 0,75.99 V 0.009 C 0,0.004 0.004,0 0.009,0 Z" />
		<path
   id="path1341_65_"
   fill="#757575"
   d="M 75.99,0 C 75.995,0 76,0.005 76,0.01 V 75.991 C 76,75.996 75.995,76 75.99,76 H 0.009 C 0.004,76 0,75.996 0,75.991 Z" />
		<polygon
   id="rect1311_65_"
   fill="#b9b9b9"
   points="67.5,67.491 67.492,67.5 8.508,67.5 8.5,67.491 8.5,8.508 8.508,8.5 67.492,8.5 67.5,8.508 " />
	</g>
	<g
   id="g3">
		<polygon
   points="40,55.5 35.999,55.5 35.999,16.5 40,16.5 "
   id="polygon1" />
		<polygon
   fill="#ff0000"
   points="40,13.875 19.375,27 40,40.125 "
   id="polygon2" />
		<rect
   x="28.570999"
   y="51.625"
   width="18.857"
   height="5.5"
   id="rect2" />
		<rect
   x="20.222"
   y="56.459"
   width="35.555"
   height="7.0409999"
   id="rect3" />
	</g>
</g>
</svg>
